<svg width="22" height="22" viewBox="0 0 22 22" fill="none" xmlns="http://www.w3.org/2000/svg">
<path fill-rule="evenodd" clip-rule="evenodd" d="M1.75132 3.93434C0.684268 4.42279 0 5.48858 0 6.66212V19.0003C0 20.6571 1.34315 22.0003 3 22.0003H6.42157C6.41829 21.9535 6.41663 21.9062 6.41663 21.8586V16.5671C6.41663 15.4625 7.31206 14.5671 8.41663 14.5671H13.5833C14.6879 14.5671 15.5833 15.4625 15.5833 16.5671V21.8586C15.5833 21.9062 15.5816 21.9535 15.5784 22.0003H19C20.6569 22.0003 22 20.6572 22 19.0003V6.66212C22 5.48858 21.3157 4.42279 20.2487 3.93434L12.2487 0.272218C11.4558 -0.0907393 10.5442 -0.0907395 9.75132 0.272218L1.75132 3.93434Z" fill="white"/>
</svg>
