<svg width="22" height="22" viewBox="0 0 22 22" fill="none" xmlns="http://www.w3.org/2000/svg">
<path fill-rule="evenodd" clip-rule="evenodd" d="M3 0.000244141C1.34315 0.000244141 0 1.34339 0 3.00024V19.0002C0 20.6571 1.34315 22.0002 3 22.0002H19C20.6569 22.0002 22 20.6571 22 19.0002V3.00024C22 1.34339 20.6569 0.000244141 19 0.000244141H3ZM6.58329 3.66691C6.07703 3.66691 5.66663 4.07731 5.66663 4.58358V17.4169C5.66663 17.9232 6.07703 18.3336 6.58329 18.3336C7.08955 18.3336 7.49996 17.9232 7.49996 17.4169V4.58357C7.49996 4.07731 7.08955 3.66691 6.58329 3.66691ZM10.25 11.9169C10.25 11.4107 10.6604 11.0002 11.1667 11.0002C11.6729 11.0002 12.0833 11.4106 12.0833 11.9169V17.4169C12.0833 17.9232 11.6729 18.3336 11.1667 18.3336C10.6604 18.3336 10.25 17.9232 10.25 17.4169V11.9169ZM15.75 6.41691C15.2438 6.41691 14.8334 6.82732 14.8334 7.33358V17.4169C14.8334 17.9232 15.2438 18.3336 15.75 18.3336C16.2563 18.3336 16.6667 17.9232 16.6667 17.4169V7.33357C16.6667 6.82731 16.2563 6.41691 15.75 6.41691Z" fill="#84858C"/>
</svg>
