<svg width="124" height="124" viewBox="0 0 124 124" fill="none" xmlns="http://www.w3.org/2000/svg">
<path d="M108.5 63.1367C108.5 34.7717 86.4899 15.5 61.9999 15.5C37.7683 15.5 15.4999 34.3583 15.4999 63.4467C12.3999 65.2033 10.3333 68.51 10.3333 72.3333V82.6667C10.3333 88.35 14.9833 93 20.6666 93H25.8333V61.4833C25.8333 41.4883 42.0049 25.3167 61.9999 25.3167C81.9949 25.3167 98.1666 41.4883 98.1666 61.4833V98.1667H56.8333V108.5H98.1666C103.85 108.5 108.5 103.85 108.5 98.1667V91.8633C111.548 90.2617 113.667 87.11 113.667 83.39V71.5067C113.667 67.89 111.548 64.7383 108.5 63.1367Z" fill="#FF7B31"/>
<path d="M46.4999 72.3333C49.3534 72.3333 51.6666 70.0201 51.6666 67.1667C51.6666 64.3132 49.3534 62 46.4999 62C43.6464 62 41.3333 64.3132 41.3333 67.1667C41.3333 70.0201 43.6464 72.3333 46.4999 72.3333Z" fill="#FF7B31"/>
<path d="M77.4999 72.3333C80.3534 72.3333 82.6666 70.0201 82.6666 67.1667C82.6666 64.3132 80.3534 62 77.4999 62C74.6464 62 72.3333 64.3132 72.3333 67.1667C72.3333 70.0201 74.6464 72.3333 77.4999 72.3333Z" fill="#FF7B31"/>
<path d="M92.9999 56.9883C91.768 49.7247 88.0059 43.1312 82.3796 38.3748C76.7533 33.6185 69.6256 31.006 62.2583 31C46.6033 31 29.7599 43.9683 31.1033 64.325C37.4744 61.7178 43.1015 57.5747 47.4828 52.2649C51.864 46.9551 54.8633 40.6437 56.2133 33.8933C62.9816 47.4817 76.8799 56.8333 92.9999 56.9883Z" fill="#FF7B31"/>
</svg>
