<svg width="77" height="65" viewBox="0 0 77 65" fill="none" xmlns="http://www.w3.org/2000/svg">
<path fill-rule="evenodd" clip-rule="evenodd" d="M72.4283 5.55427C73.6587 6.99297 74.6096 8.64796 75.2324 10.4344C76.4577 14.1061 77.0249 17.9646 76.908 21.8328V42.036C76.9031 43.7377 76.7774 45.437 76.5318 47.1209C76.0642 50.0928 75.0187 52.9448 73.4541 55.5162C72.735 56.7583 71.8618 57.9049 70.8552 58.9289C66.2984 63.111 60.2473 65.288 54.0647 64.9694H22.8091C16.6166 65.2856 10.5558 63.1097 5.9844 58.9289C4.9898 57.9029 4.12816 56.7563 3.41966 55.5162C1.86434 52.9466 0.841078 50.092 0.410362 47.1209C0.136488 45.4398 -0.000744721 43.7393 3.66541e-06 42.036V21.8328C-0.000666859 20.1455 0.0906589 18.4594 0.273576 16.782C0.312041 16.4878 0.369734 16.1983 0.426831 15.9118C0.522016 15.4341 0.615541 14.9648 0.615541 14.4955C0.962675 12.4713 1.59593 10.5065 2.49635 8.65982C5.16368 2.96062 10.6351 0.0598199 19.5946 0.0598199H57.2108C62.229 -0.328287 67.2098 1.18241 71.163 4.29157C71.6183 4.67763 72.0414 5.09991 72.4283 5.55427ZM18.5643 49.8179H57.2748H57.3431C58.1925 49.8548 59.0214 49.5508 59.6446 48.9737C60.2678 48.3966 60.6336 47.5945 60.6602 46.7465C60.7082 46.0011 60.4629 45.2664 59.9763 44.6989C59.4166 43.9362 58.5297 43.481 57.5825 43.4703H18.5643C16.8079 43.4703 15.384 44.8912 15.384 46.6441C15.384 48.3969 16.8079 49.8179 18.5643 49.8179ZM57.2748 35.7748H18.5643C16.8079 35.7748 15.384 34.3538 15.384 32.601C15.384 30.8481 16.8079 29.4272 18.5643 29.4272H57.5825C58.5297 29.4379 59.4166 29.893 59.9763 30.6557C60.4629 31.2233 60.7082 31.9579 60.6602 32.7033C60.6336 33.5514 60.2678 34.3535 59.6446 34.9306C59.0214 35.5077 58.1925 35.8117 57.3431 35.7748H57.2748ZM18.5645 21.7316H57.2749H57.3433C58.1927 21.7685 59.0215 21.4645 59.6448 20.8874C60.268 20.3103 60.6338 19.5082 60.6604 18.6602C60.7084 17.9148 60.463 17.1801 59.9765 16.6125C59.4168 15.8499 58.5299 15.3947 57.5827 15.384H18.5645C16.808 15.384 15.3842 16.8049 15.3842 18.5578C15.3842 20.3106 16.808 21.7316 18.5645 21.7316Z" fill="white"/>
</svg>
