<svg width="22" height="18" viewBox="0 0 22 18" fill="none" xmlns="http://www.w3.org/2000/svg">
<path fill-rule="evenodd" clip-rule="evenodd" d="M0 3.00024C0 1.34339 1.34315 0.000244141 3 0.000244141H19C20.6569 0.000244141 22 1.34339 22 3.00024V5.40024H14.5834C12.0981 5.40024 10.0834 7.41496 10.0834 9.90024C10.0834 12.3855 12.0981 14.4002 14.5834 14.4002H22V15.0002C22 16.6571 20.6569 18.0002 19 18.0002H3C1.34315 18.0002 0 16.6571 0 15.0002V3.00024ZM22 7.40024V12.4002H14.5834C13.2027 12.4002 12.0834 11.281 12.0834 9.90024C12.0834 8.51953 13.2027 7.40024 14.5834 7.40024H22ZM2.75 2.70024C2.75 2.20319 3.15294 1.80024 3.65 1.80024H11.0167C11.5137 1.80024 11.9167 2.20319 11.9167 2.70024C11.9167 3.1973 11.5137 3.60024 11.0167 3.60024H3.65C3.15294 3.60024 2.75 3.1973 2.75 2.70024Z" fill="#84858C"/>
</svg>
