<svg width="94" height="41" viewBox="0 0 94 41" fill="none" xmlns="http://www.w3.org/2000/svg">
<path fill-rule="evenodd" clip-rule="evenodd" d="M90.5154 0.935098C88.2255 1.65053 87.5377 1.91402 87.5046 2.08848C87.4779 2.22972 87.679 2.50874 88.0408 2.83214C88.3593 3.1168 88.619 3.41685 88.6181 3.49908C88.6157 3.73396 78.0255 15.1894 77.7713 15.2322C77.615 15.2585 76.3665 14.0443 73.7747 11.3452C70.7649 8.21076 69.9484 7.42785 69.7215 7.45851C69.3186 7.51303 52.6158 25.6151 52.6158 25.9997C52.6158 26.31 54.5504 27.958 54.5504 27.958C54.6535 27.958 58.0808 24.3212 62.1667 19.8762C66.2928 15.3875 69.6899 11.7945 69.8078 11.7945C69.9244 11.7945 71.7106 13.5551 73.777 15.7071C76.4067 18.4455 77.6158 19.6197 77.8062 19.6197C77.9803 19.6197 78.3182 19.3428 78.7446 18.8509C80.5305 16.7907 90.6936 5.82394 90.8515 5.78661C90.9509 5.76313 91.6006 6.27601 91.6006 6.27601C91.6006 6.27601 92.2656 6.78901 92.384 6.76592C92.555 6.73244 92.749 6.06832 93.3299 3.52666C93.7319 1.76816 94.0322 0.253534 93.9972 0.160914C93.9621 0.0682944 93.8322 -0.00405661 93.7084 0.00017671C93.5847 0.00441003 92.1479 0.425176 90.5154 0.935098ZM89.4893 10.1614C88.4204 11.3162 87.1621 12.6965 86.6932 13.2288L85.8405 14.1967V23.3887V32.5808L88.8408 32.5464L91.8412 32.5121V20.327C91.8412 9.20482 91.8233 8.13841 91.6369 8.10198C91.5084 8.07683 90.7104 8.84216 89.4893 10.1614ZM69.8547 14.5205C69.8215 14.6087 69.8091 18.6928 69.8271 23.5964L69.8598 32.5121L72.8601 32.5464L75.8605 32.5808V26.3727V20.1645L73.0687 17.2624C71.5333 15.6661 70.1956 14.3601 70.096 14.3601C69.9965 14.3601 69.8878 14.4323 69.8547 14.5205ZM80.8851 18.7554C79.5144 20.2538 78.249 21.6795 78.0729 21.9236L77.7525 22.3674L77.7856 27.4398L77.8186 32.5121L80.8189 32.5464L83.8192 32.5808V24.3043C83.8192 16.5068 83.8065 16.0279 83.5981 16.0294C83.474 16.0303 82.2846 17.2254 80.8851 18.7554ZM64.654 19.4564L61.8485 22.506L61.8432 27.5411L61.8379 32.5762H64.8708H67.9036L67.8711 24.5283C67.8426 17.4939 67.8146 16.4756 67.649 16.4435C67.5382 16.4221 66.2938 17.674 64.654 19.4564ZM4.23761 22.9552C2.47822 23.4374 1.09617 24.4965 0.351835 25.933C0.029315 26.5551 0.000385061 26.7274 6.07251e-06 28.0222C-0.000499246 29.3141 0.0298201 29.4961 0.359288 30.1773C1.46922 32.4725 4.11444 33.6285 7.57991 33.3328C8.62276 33.2438 10.117 32.9133 10.976 32.5816C11.1665 32.5081 11.4893 32.4479 11.6932 32.4479C11.8971 32.4479 12.064 32.4196 12.064 32.3849C12.064 32.2334 10.1323 29.3691 10.0301 29.3691C9.96754 29.3691 9.91638 29.4833 9.91638 29.6228C9.91638 29.9855 9.47713 30.23 8.26715 30.5407C6.40959 31.0178 4.67698 30.7505 3.74795 29.8437C2.15279 28.2867 3.06969 25.9242 5.46945 25.408C7.25006 25.0251 9.90033 25.5951 9.83464 26.3468C9.7994 26.7497 10.0815 26.468 10.5398 25.6425C11.9303 23.1385 11.8587 23.2974 11.5608 23.3764C11.411 23.4162 10.738 23.3019 10.0654 23.1223C8.3341 22.6601 5.60045 22.5817 4.23761 22.9552ZM15.0959 24.6077C15.0959 24.67 15.2096 24.7512 15.3486 24.7882C15.5945 24.8535 15.6012 24.9632 15.6012 28.9202C15.6012 32.8771 15.5945 32.9868 15.3486 33.0521C14.5203 33.2721 15.5643 33.3459 19.5039 33.3459C23.3057 33.3459 23.9219 33.3723 23.9847 33.5383C24.0246 33.6441 24.116 33.7307 24.1877 33.7307C24.2696 33.7307 24.318 33.1834 24.318 32.2555C24.318 30.8831 24.1966 30.4148 24.0021 31.0368C23.9251 31.2834 23.811 31.2934 21.0881 31.2934H18.2541V28.0743C18.2541 24.9632 18.2626 24.853 18.5068 24.7882C19.1887 24.607 18.5831 24.4944 16.9277 24.4944C15.9202 24.4944 15.0959 24.5455 15.0959 24.6077ZM27.2235 24.6077C27.2235 24.67 27.3309 24.7496 27.4623 24.7845C27.6853 24.8437 27.7044 25.0358 27.753 27.7178C27.8012 30.379 27.8264 30.637 28.0988 31.2622C28.6286 32.479 29.681 33.1422 31.3771 33.3283C33.6117 33.5736 35.4528 33.0598 36.2782 31.961C36.8936 31.1416 36.9793 30.6266 36.9977 27.6373C37.014 24.9742 37.0174 24.942 37.2983 24.8168C37.4547 24.7471 37.5826 24.646 37.5826 24.5923C37.5826 24.5384 36.7867 24.4944 35.814 24.4944C34.2083 24.4944 33.7073 24.5918 34.2417 24.8C34.4127 24.8667 34.433 25.2422 34.3996 27.7108L34.3612 30.5452L33.9586 30.9102C33.1775 31.6184 31.5277 31.5847 30.7999 30.8457L30.3818 30.4211V27.6462C30.3818 25.2978 30.411 24.8599 30.5713 24.7974C31.0987 24.5919 30.5907 24.4944 28.9922 24.4944C28.0194 24.4944 27.2235 24.5455 27.2235 24.6077ZM41.3725 24.584C41.3725 24.6423 41.5003 24.7471 41.6567 24.8168L41.9409 24.9434V28.9202V32.8969L41.6567 33.0235C41.5003 33.0932 41.3725 33.1943 41.3725 33.248C41.3725 33.3019 42.9539 33.3459 44.8867 33.3459C48.7252 33.3459 49.3407 33.2602 50.0877 32.6219C50.6516 32.14 50.8879 31.5925 50.8886 30.7659C50.8895 29.8703 50.5378 29.2378 49.8456 28.8901L49.3556 28.6438L49.7987 28.2849C50.3948 27.8019 50.641 27.1697 50.5566 26.3391C50.4716 25.5034 50.2782 25.1837 49.6471 24.8365C49.1651 24.5714 48.9616 24.5566 45.2571 24.5181C43.1205 24.496 41.3725 24.5255 41.3725 24.584ZM56.7113 27.8977L53.9423 30.9162V31.7141V32.5121L56.9426 32.5464L59.9429 32.5808V28.73C59.9429 25.0834 59.9307 24.8793 59.7116 24.8793C59.5725 24.8793 58.3773 26.0816 56.7113 27.8977ZM47.8704 26.31C48.323 26.5193 48.4414 27.2193 48.1023 27.6809C47.857 28.0151 47.8186 28.0229 46.2543 28.0581L44.657 28.094V27.128V26.1621H46.1039C46.9273 26.1621 47.6884 26.2258 47.8704 26.31ZM47.875 29.6801C48.2133 29.8236 48.3231 29.9582 48.3878 30.308C48.5745 31.3189 47.9451 31.6782 45.9875 31.6782H44.657V30.5878V29.4974H46.0507C46.9708 29.4974 47.5908 29.5595 47.875 29.6801ZM63.9895 35.3407C63.9929 36.0029 64.0157 36.0742 64.1613 35.8795C64.2984 35.6962 64.5293 35.655 65.4206 35.655H66.5121V38.0923C66.5121 39.6317 66.4656 40.5297 66.3857 40.5297C66.3163 40.5297 66.2594 40.5874 66.2594 40.658C66.2594 40.7285 66.5721 40.7863 66.9542 40.7863C67.3364 40.7863 67.649 40.7285 67.649 40.658C67.649 40.5874 67.5922 40.5297 67.5227 40.5297C67.4429 40.5297 67.3964 39.6317 67.3964 38.0923V35.655H68.5333C69.207 35.655 69.6703 35.7072 69.6703 35.7833C69.6703 35.8538 69.7271 35.9115 69.7966 35.9115C69.8661 35.9115 69.923 35.6229 69.923 35.2701C69.923 34.9174 69.8661 34.6287 69.7966 34.6287C69.7271 34.6287 69.6703 34.6864 69.6703 34.757C69.6703 34.9533 64.3312 34.9285 64.1371 34.7313C64.0192 34.6117 63.9864 34.747 63.9895 35.3407ZM16.1065 34.9434C15.2021 35.1361 14.6992 35.4156 14.2408 35.9802C13.0078 37.4993 13.563 39.7376 15.3686 40.5262C16.2998 40.933 17.7669 40.8566 18.7406 40.3505C19.1124 40.1572 19.4962 40.03 19.5934 40.0679C19.8834 40.1809 19.7954 39.8934 19.3748 39.3543C18.9809 38.8493 18.9789 38.8484 18.8374 39.1434C18.6077 39.6221 17.6872 40.017 16.8061 40.0145C15.4832 40.0108 14.6064 39.2923 14.4954 38.1211C14.4119 37.2385 14.7804 36.4271 15.4777 35.9586C15.9259 35.6574 16.138 35.6026 16.8468 35.6055C17.758 35.6091 18.7595 36.0058 18.7595 36.3631C18.7595 36.7184 18.9611 36.5542 19.2396 35.9722C19.5738 35.2737 19.5731 35.2823 19.2964 35.3012C19.1747 35.3094 18.791 35.2242 18.4436 35.112C17.5413 34.8202 16.9014 34.7741 16.1065 34.9434ZM24.0637 34.9377C23.1812 35.1222 22.552 35.5163 22.1131 36.1594C21.1192 37.6159 21.5896 39.6052 23.1152 40.396C23.6527 40.6748 23.9098 40.7219 24.8838 40.7199C25.8041 40.7182 26.1207 40.6649 26.5287 40.443C27.5713 39.8762 28.1099 38.9761 28.1051 37.8078C28.097 35.8226 26.2171 34.4876 24.0637 34.9377ZM41.8778 34.8485C40.5713 35.0258 39.8822 35.5266 39.7725 36.3782C39.6214 37.5516 40.2371 37.9909 42.3404 38.21C43.7609 38.358 44.2342 38.5196 44.3521 38.8968C44.466 39.2614 44.175 39.7267 43.7357 39.8821C42.7526 40.2302 40.5616 39.9006 40.1799 39.3473C39.9562 39.0229 39.96 39.0199 39.6876 39.7305C39.4332 40.3939 39.4322 40.411 39.6526 40.3251C39.749 40.2876 40.2363 40.3828 40.7354 40.5369C42.4786 41.0745 44.6165 40.7081 45.023 39.802C45.0997 39.6311 45.1623 39.2394 45.1623 38.9316C45.1623 37.9389 44.5647 37.6368 42.0209 37.3433C40.8001 37.2026 40.3971 36.9392 40.5368 36.3739C40.6712 35.83 41.1669 35.598 42.1946 35.598C43.1615 35.598 44.1517 35.9287 44.1517 36.2517C44.1517 36.5968 44.3816 36.4129 44.5801 35.909C44.829 35.2774 44.835 35.1298 44.6086 35.2179C44.5126 35.2554 44.1289 35.201 43.7559 35.0971C42.9558 34.874 42.3146 34.7892 41.8778 34.8485ZM88.4303 34.8971C87.621 35.0495 87.2686 35.2287 86.661 35.7975C85.2182 37.1481 85.5362 39.4857 87.2933 40.4459C87.7193 40.6788 88.0068 40.722 89.1251 40.7211C90.2499 40.7202 90.5379 40.6759 91.02 40.4298C91.9295 39.9654 92.2493 39.6753 92.0622 39.4847C91.861 39.2797 91.8568 38.4484 92.0559 38.2463C92.1738 38.1266 91.9369 38.0923 90.9896 38.0923C90.3138 38.0923 89.7369 38.0353 89.6936 37.9641C89.5085 37.66 89.3777 37.8832 89.3777 38.5028C89.3777 39.0216 89.4115 39.1357 89.5293 39.016C89.6127 38.9313 89.9859 38.862 90.3584 38.862H91.0361L90.9964 39.2756C90.962 39.6345 90.8901 39.7095 90.4515 39.843C89.573 40.1105 88.3564 40.0566 87.7237 39.7223C86.2458 38.9412 86.2787 36.6828 87.7798 35.8797C88.5049 35.4917 89.7551 35.5071 90.5832 35.9142C90.9115 36.0756 91.2076 36.3142 91.2412 36.4444C91.2747 36.5746 91.3462 36.6812 91.4 36.6812C91.4936 36.6812 91.9545 35.6429 91.878 35.6043C91.8577 35.594 91.6422 35.5094 91.399 35.4161C90.0273 34.8899 89.2191 34.7487 88.4303 34.8971ZM30.7058 35.0001C30.6673 35.0633 30.7209 35.148 30.8247 35.1885C31.1074 35.2987 31.1068 40.3731 30.8239 40.4833C30.4212 40.6403 30.6648 40.7863 31.3293 40.7863C31.7114 40.7863 32.0241 40.7285 32.0241 40.658C32.0241 40.5874 31.9672 40.5297 31.8977 40.5297C31.8183 40.5297 31.7714 39.6946 31.7714 38.2808V36.0319L33.6804 38.2242C35.465 40.2735 35.5741 40.4282 35.3542 40.5973C35.145 40.7582 35.2222 40.7786 36.0546 40.7822C36.9529 40.7861 36.9818 40.7769 36.781 40.5516C36.4825 40.2167 36.4638 35.3043 36.7607 35.1885C36.8645 35.148 36.9181 35.0633 36.8796 35.0001C36.7833 34.842 35.5613 34.8545 35.5613 35.0136C35.5613 35.0841 35.6181 35.1418 35.6876 35.1418C35.7668 35.1418 35.8136 35.9428 35.8128 37.2906L35.8118 39.4393L35.3978 38.9903C33.9656 37.4369 32.182 35.2014 32.3455 35.1646C32.4466 35.1417 32.5294 35.0695 32.5294 35.0042C32.5294 34.8514 30.7985 34.8476 30.7058 35.0001ZM47.8153 35.0136C47.8153 35.0841 47.8721 35.1418 47.9416 35.1418C48.0206 35.1418 48.0681 35.9226 48.0684 37.2264C48.0689 39.6275 48.1628 39.9173 49.1052 40.4284C49.5711 40.681 49.8329 40.7221 50.9735 40.7221C52.1966 40.7221 52.3465 40.6943 52.8978 40.3654C53.2265 40.1691 53.5638 39.8805 53.6473 39.724C53.7318 39.5657 53.818 38.7844 53.8413 37.9641C53.8646 37.1527 53.8994 36.1281 53.9189 35.687L53.9543 34.8853H53.4188C53.1243 34.8853 52.8483 34.943 52.8053 35.0136C52.7623 35.0841 52.7875 35.1418 52.861 35.1418C53.0708 35.1418 53.0326 39.1215 52.82 39.4058C52.3921 39.9781 50.5719 40.2248 49.6531 39.8351C48.9813 39.55 48.931 39.3389 48.9754 36.9942L49.0154 34.8849L48.4153 34.8852C48.0852 34.8852 47.8153 34.943 47.8153 35.0136ZM57.1637 35.0136C57.1637 35.0841 57.2205 35.1418 57.29 35.1418C57.3702 35.1418 57.4163 36.1254 57.4163 37.8358C57.4163 39.5462 57.3702 40.5297 57.29 40.5297C57.2205 40.5297 57.1637 40.5874 57.1637 40.658C57.1637 40.7396 58.1532 40.7863 59.8798 40.7863C61.7071 40.7863 62.5958 40.8307 62.5958 40.9221C62.5958 40.9968 62.6527 41.0223 62.7222 40.9787C62.8787 40.8804 62.8912 39.6317 62.7357 39.6317C62.6737 39.6317 62.5902 39.7183 62.5501 39.8242C62.4895 39.9848 62.1219 40.0166 60.3258 40.0166H58.1743V37.6394C58.1743 35.6486 58.205 35.2501 58.363 35.1885C58.4669 35.148 58.5205 35.0633 58.4819 35.0001C58.3857 34.842 57.1637 34.8545 57.1637 35.0136ZM72.3232 35.0136C72.3232 35.0841 72.3801 35.1418 72.4496 35.1418C72.5296 35.1418 72.5759 36.11 72.5759 37.7896C72.5759 40.1608 72.5528 40.455 72.3548 40.6077C72.1635 40.7551 72.2429 40.7787 72.9429 40.7822C73.7189 40.7861 73.7434 40.7766 73.5429 40.5516C73.2444 40.2167 73.2257 35.3043 73.5226 35.1885C73.6264 35.148 73.68 35.0633 73.6415 35.0001C73.5452 34.842 72.3232 34.8545 72.3232 35.0136ZM76.9974 35.0136C76.9974 35.0841 77.0543 35.1418 77.1237 35.1418C77.204 35.1418 77.2501 36.1254 77.2501 37.8358C77.2501 39.5462 77.204 40.5297 77.1237 40.5297C77.0543 40.5297 76.9974 40.5874 76.9974 40.658C76.9974 40.7291 77.3211 40.7845 77.7238 40.7822C78.3598 40.7786 78.4223 40.7566 78.2261 40.6054C78.0242 40.4499 78.0054 40.2135 78.0366 38.2261L78.0712 36.0196L79.7135 37.918C81.8461 40.3832 81.8864 40.4357 81.6985 40.4992C81.2876 40.6384 81.6318 40.7863 82.3664 40.7863C82.8297 40.7863 83.1876 40.7303 83.1876 40.658C83.1876 40.5874 83.1307 40.5297 83.0612 40.5297C82.981 40.5297 82.9349 39.5462 82.9349 37.8358C82.9349 36.1254 82.981 35.1418 83.0612 35.1418C83.1307 35.1418 83.1876 35.0841 83.1876 35.0136C83.1876 34.943 82.8749 34.8853 82.4928 34.8853C82.1106 34.8853 81.798 34.943 81.798 35.0136C81.798 35.0841 81.8832 35.1418 81.9874 35.1418C82.1483 35.1418 82.1769 35.4634 82.1769 37.2661C82.1769 39.5306 82.1675 39.5567 81.5913 38.8677C81.4411 38.6882 81.1846 38.3885 81.0211 38.2018C79.0821 35.9848 78.4724 35.2198 78.6081 35.1739C79.0351 35.0293 78.6724 34.8853 77.8817 34.8853C77.3764 34.8853 76.9974 34.9403 76.9974 35.0136ZM26.0747 35.8423C26.8389 36.2461 27.2235 36.926 27.2235 37.8725C27.2235 39.1544 26.3004 40.0104 24.914 40.0145C24.0024 40.0171 23.4793 39.8003 22.9665 39.2072C22.1409 38.2524 22.3333 36.7428 23.3729 36.0198C23.6494 35.8274 24.0179 35.6437 24.1916 35.6116C24.6752 35.5222 25.7087 35.6488 26.0747 35.8423Z" fill="#FF7B31"/>
<path fill-rule="evenodd" clip-rule="evenodd" d="M89.6441 10.0898C88.5733 11.2613 87.3129 12.6616 86.8432 13.2016L85.989 14.1834V23.5084V32.8335L88.9945 32.7986L92 32.7637V20.4025C92 9.1194 91.9822 8.03757 91.7954 8.00061C91.6667 7.9751 90.8673 8.7515 89.6441 10.0898ZM69.9756 14.5119C69.9423 14.6014 69.9299 18.7446 69.9479 23.7191L69.9806 32.7637L72.9861 32.7986L75.9917 32.8335V26.5356V20.2376L73.1951 17.2935C71.657 15.6742 70.317 14.3492 70.2173 14.3492C70.1175 14.3492 70.0087 14.4225 69.9756 14.5119ZM81.025 18.8081C79.6519 20.3281 78.3843 21.7745 78.2079 22.0221L77.887 22.4723L77.9201 27.6181L77.9532 32.7637L80.9587 32.7986L83.9642 32.8335V24.4372C83.9642 16.527 83.9514 16.0412 83.7427 16.0427C83.6183 16.0436 82.4269 17.256 81.025 18.8081ZM64.7658 19.5192L61.9554 22.613L61.9501 27.7209L61.9448 32.8288H64.983H68.021L67.9885 24.6645C67.9599 17.5284 67.9319 16.4953 67.766 16.4628C67.655 16.4411 66.4084 17.7111 64.7658 19.5192ZM4.24494 23.0686C2.4825 23.5578 1.09806 24.6322 0.352443 26.0895C0.0293657 26.7206 0.000385727 26.8954 6.08301e-06 28.2089C-0.00050011 29.5195 0.0298717 29.7042 0.359909 30.3952C1.47176 32.7236 4.12155 33.8963 7.59302 33.5963C8.63768 33.506 10.1345 33.1708 10.995 32.8342C11.1859 32.7597 11.5092 32.6986 11.7134 32.6986C11.9177 32.6986 12.0848 32.6699 12.0848 32.6347C12.0848 32.481 10.1498 29.5753 10.0474 29.5753C9.98478 29.5753 9.93353 29.6911 9.93353 29.8326C9.93353 30.2006 9.49352 30.4487 8.28144 30.7639C6.42068 31.2479 4.68507 30.9766 3.75444 30.0567C2.15651 28.4772 3.075 26.0806 5.47891 25.5569C7.2626 25.1685 9.91746 25.7467 9.85165 26.5093C9.81635 26.918 10.0989 26.6323 10.558 25.7948C11.951 23.2545 11.8792 23.4158 11.5808 23.496C11.4307 23.5363 10.7566 23.4203 10.0829 23.2382C8.34851 22.7693 5.61014 22.6898 4.24494 23.0686ZM15.122 24.745C15.122 24.8083 15.2359 24.8906 15.3751 24.9281C15.6215 24.9944 15.6282 25.1056 15.6282 29.1198C15.6282 33.1341 15.6215 33.2453 15.3751 33.3116C14.5454 33.5348 15.5912 33.6096 19.5376 33.6096C23.346 33.6096 23.9633 33.6364 24.0262 33.8048C24.0662 33.9122 24.1577 34 24.2295 34C24.3115 34 24.36 33.4447 24.36 32.5034C24.36 31.1112 24.2384 30.6361 24.0436 31.2671C23.9665 31.5172 23.8522 31.5274 21.1246 31.5274H18.2857V28.2617C18.2857 25.1056 18.2942 24.9938 18.5388 24.9281C19.2219 24.7444 18.6152 24.6301 16.957 24.6301C15.9477 24.6301 15.122 24.6819 15.122 24.745ZM27.2706 24.745C27.2706 24.8083 27.3782 24.8889 27.5098 24.9243C27.7332 24.9845 27.7523 25.1793 27.801 27.9001C27.8493 30.5998 27.8745 30.8615 28.1474 31.4958C28.6781 32.7301 29.7324 33.4029 31.4314 33.5918C33.6698 33.8406 35.5141 33.3194 36.341 32.2046C36.9574 31.3734 37.0433 30.8509 37.0617 27.8185C37.078 25.1168 37.0814 25.0842 37.3628 24.9571C37.5195 24.8865 37.6476 24.7839 37.6476 24.7294C37.6476 24.6747 36.8503 24.6301 35.8759 24.6301C34.2675 24.6301 33.7656 24.7289 34.3009 24.9401C34.4722 25.0078 34.4926 25.3887 34.4591 27.893L34.4206 30.7684L34.0173 31.1387C33.2348 31.8572 31.5822 31.8229 30.8532 31.0732L30.4343 30.6425V27.8274C30.4343 25.4452 30.4636 25.0009 30.6242 24.9375C31.1525 24.729 30.6436 24.6301 29.0423 24.6301C28.0679 24.6301 27.2706 24.6819 27.2706 24.745ZM41.444 24.7209C41.444 24.7801 41.5721 24.8865 41.7288 24.9571L42.0135 25.0856V29.1198V33.1541L41.7288 33.2826C41.5721 33.3532 41.444 33.4558 41.444 33.5103C41.444 33.565 43.0281 33.6096 44.9643 33.6096C48.8095 33.6096 49.426 33.5227 50.1743 32.8751C50.7392 32.3863 50.9759 31.8309 50.9766 30.9923C50.9775 30.0838 50.6252 29.4421 49.9319 29.0894L49.441 28.8395L49.8848 28.4754C50.482 27.9854 50.7286 27.3441 50.6441 26.5015C50.5589 25.6536 50.3652 25.3293 49.7329 24.9772C49.2501 24.7082 49.0463 24.6932 45.3354 24.6542C43.1951 24.6317 41.444 24.6616 41.444 24.7209ZM56.8094 28.0826L54.0356 31.1448V31.9542V32.7637L57.0411 32.7986L60.0466 32.8335V28.927C60.0466 25.2276 60.0343 25.0205 59.8149 25.0205C59.6756 25.0205 58.4783 26.2403 56.8094 28.0826ZM47.9531 26.4719C48.4066 26.6843 48.5252 27.3944 48.1855 27.8627C47.9397 28.2017 47.9013 28.2097 46.3343 28.2453L44.7343 28.2818V27.3018V26.3219H46.1836C47.0085 26.3219 47.7709 26.3866 47.9531 26.4719ZM47.9578 29.8908C48.2967 30.0364 48.4067 30.1729 48.4715 30.5278C48.6585 31.5533 48.0281 31.9178 46.0671 31.9178H44.7343V30.8116V29.7055H46.1304C47.052 29.7055 47.6731 29.7685 47.9578 29.8908Z" fill="white"/>
</svg>
