<svg width="500" height="218" viewBox="0 0 500 218" fill="none" xmlns="http://www.w3.org/2000/svg">
<path fill-rule="evenodd" clip-rule="evenodd" d="M481.277 4.97199C469.101 8.77598 465.444 10.177 465.268 11.1046C465.126 11.8556 466.195 13.3391 468.119 15.0587C469.813 16.5722 471.194 18.1676 471.189 18.6049C471.176 19.8538 414.867 80.7634 413.516 80.9905C412.685 81.1304 406.046 74.6744 392.266 60.3233C376.262 43.6572 371.921 39.4944 370.714 39.6575C368.572 39.9473 279.762 136.197 279.762 138.242C279.762 139.892 290.049 148.655 290.049 148.655C290.597 148.655 308.82 129.318 330.545 105.683C352.483 81.8166 370.546 62.712 371.173 62.712C371.793 62.712 381.291 72.0736 392.278 83.5156C406.26 98.0761 412.689 104.319 413.701 104.319C414.627 104.319 416.424 102.847 418.691 100.232C428.186 89.2772 482.224 30.9663 483.064 30.7678C483.593 30.643 487.047 33.37 487.047 33.37C487.047 33.37 490.583 36.0977 491.212 35.9749C492.122 35.7969 493.153 32.2657 496.242 18.7515C498.379 9.40146 499.976 1.34806 499.79 0.855593C499.603 0.363126 498.913 -0.0215693 498.255 0.000939579C497.597 0.0234484 489.957 2.26069 481.277 4.97199ZM475.821 54.029C470.138 60.1692 463.448 67.5084 460.954 70.3384L456.42 75.4847V124.36V173.235L472.373 173.052L488.326 172.869V108.08C488.326 48.9427 488.231 43.2725 487.24 43.0788C486.557 42.9451 482.314 47.0144 475.821 54.029ZM371.423 77.2063C371.246 77.6756 371.18 99.3912 371.276 125.464L371.45 172.869L387.403 173.052L403.356 173.235V140.226V107.216L388.512 91.7852C380.348 83.298 373.235 76.3537 372.706 76.3537C372.176 76.3537 371.599 76.7377 371.423 77.2063ZM430.072 99.7241C422.784 107.691 416.055 115.272 415.119 116.57L413.416 118.929L413.592 145.899L413.767 172.869L429.72 173.052L445.673 173.235V129.228C445.673 87.7678 445.605 85.2215 444.497 85.2297C443.837 85.2345 437.513 91.5888 430.072 99.7241ZM343.77 103.451L328.853 119.666L328.825 146.438L328.796 173.21H344.923H361.048L360.876 130.419C360.724 93.0164 360.575 87.602 359.695 87.4315C359.106 87.3176 352.489 93.9741 343.77 103.451ZM22.5317 122.054C13.1769 124.618 5.82841 130.249 1.87073 137.887C0.15587 141.196 0.0020474 142.112 3.2288e-05 148.996C-0.00265453 155.865 0.158556 156.833 1.91036 160.455C7.81195 172.659 21.8768 178.805 40.3029 177.233C45.8479 176.76 53.7928 175.003 58.3604 173.239C59.3733 172.848 61.0895 172.528 62.1736 172.528C63.2578 172.528 64.1451 172.377 64.1451 172.193C64.1451 171.387 53.874 156.158 53.3306 156.158C52.9981 156.158 52.7261 156.765 52.7261 157.506C52.7261 159.435 50.3906 160.735 43.957 162.387C34.0803 164.924 24.8679 163.503 19.9281 158.681C11.4465 150.402 16.3218 137.841 29.0815 135.096C38.5491 133.06 52.6408 136.091 52.2915 140.088C52.1041 142.23 53.604 140.732 56.041 136.343C63.4344 123.029 63.0536 123.874 61.4697 124.294C60.673 124.506 57.0949 123.898 53.5187 122.943C44.313 120.485 29.778 120.069 22.5317 122.054ZM80.266 130.841C80.266 131.172 80.8705 131.604 81.6094 131.801C82.9172 132.148 82.9528 132.731 82.9528 153.771C82.9528 174.81 82.9172 175.393 81.6094 175.741C77.2057 176.91 82.7566 177.303 103.704 177.303C123.918 177.303 127.195 177.443 127.528 178.326C127.741 178.888 128.226 179.349 128.608 179.349C129.043 179.349 129.3 176.438 129.3 171.505C129.3 164.208 128.655 161.718 127.621 165.025C127.211 166.336 126.605 166.389 112.127 166.389H97.0586V149.273C97.0586 132.731 97.1036 132.145 98.402 131.801C102.028 130.837 98.8077 130.239 90.0057 130.239C84.6488 130.239 80.266 130.51 80.266 130.841ZM144.75 130.841C144.75 131.172 145.321 131.595 146.019 131.781C147.205 132.096 147.306 133.117 147.565 147.377C147.821 161.527 147.955 162.899 149.403 166.223C152.22 172.693 157.816 176.219 166.835 177.209C178.716 178.513 188.505 175.782 192.894 169.939C196.166 165.582 196.622 162.844 196.719 146.95C196.806 132.79 196.824 132.618 198.318 131.953C199.15 131.582 199.829 131.045 199.829 130.759C199.829 130.473 195.598 130.239 190.425 130.239C181.888 130.239 179.224 130.756 182.065 131.863C182.975 132.218 183.083 134.214 182.905 147.341L182.701 162.411L180.56 164.352C176.407 168.118 167.635 167.938 163.765 164.009L161.542 161.751V146.997C161.542 134.51 161.697 132.182 162.55 131.85C165.354 130.757 162.653 130.239 154.153 130.239C148.981 130.239 144.75 130.51 144.75 130.841ZM219.98 130.715C219.98 131.025 220.66 131.582 221.492 131.953L223.003 132.626V153.771V174.915L221.492 175.588C220.66 175.959 219.98 176.496 219.98 176.782C219.98 177.069 228.389 177.303 238.666 177.303C259.076 177.303 262.348 176.847 266.32 173.453C269.318 170.891 270.574 167.98 270.579 163.584C270.583 158.823 268.713 155.459 265.033 153.611L262.427 152.301L264.783 150.393C267.953 147.825 269.262 144.464 268.813 140.047C268.361 135.603 267.333 133.903 263.977 132.058C261.414 130.648 260.332 130.569 240.635 130.365C229.275 130.247 219.98 130.404 219.98 130.715ZM301.538 148.334L286.815 164.384V168.626V172.869L302.768 173.052L318.721 173.235V152.76C318.721 133.37 318.656 132.285 317.491 132.285C316.751 132.285 310.396 138.678 301.538 148.334ZM254.53 139.892C256.937 141.005 257.566 144.727 255.763 147.182C254.459 148.958 254.255 149 245.938 149.187L237.445 149.378V144.242V139.106H245.138C249.516 139.106 253.563 139.445 254.53 139.892ZM254.555 157.811C256.354 158.575 256.938 159.29 257.281 161.15C258.274 166.525 254.928 168.435 244.519 168.435H237.445V162.638V156.84H244.855C249.747 156.84 253.044 157.17 254.555 157.811ZM340.237 187.909C340.255 191.43 340.376 191.809 341.15 190.774C341.879 189.799 343.107 189.58 347.846 189.58H353.649V202.54C353.649 210.725 353.402 215.499 352.978 215.499C352.608 215.499 352.306 215.806 352.306 216.181C352.306 216.557 353.969 216.864 356 216.864C358.032 216.864 359.695 216.557 359.695 216.181C359.695 215.806 359.393 215.499 359.023 215.499C358.599 215.499 358.351 210.725 358.351 202.54V189.58H364.397C367.979 189.58 370.442 189.858 370.442 190.262C370.442 190.637 370.744 190.944 371.114 190.944C371.483 190.944 371.785 189.41 371.785 187.534C371.785 185.658 371.483 184.123 371.114 184.123C370.744 184.123 370.442 184.43 370.442 184.805C370.442 185.849 342.054 185.717 341.021 184.669C340.395 184.033 340.22 184.752 340.237 187.909ZM85.6396 185.797C80.8309 186.821 78.1568 188.307 75.7192 191.309C69.1634 199.386 72.1155 211.288 81.7162 215.481C86.6673 217.644 94.4678 217.237 99.6453 214.547C101.622 213.519 103.663 212.843 104.179 213.044C105.722 213.645 105.253 212.116 103.017 209.249C100.923 206.565 100.912 206.56 100.16 208.128C98.9387 210.674 94.044 212.773 89.3595 212.76C82.3254 212.74 77.6631 208.92 77.0734 202.693C76.6294 198 78.5887 193.686 82.2959 191.195C84.6791 189.593 85.8069 189.302 89.5758 189.317C94.4208 189.336 99.7454 191.446 99.7454 193.345C99.7454 195.235 100.817 194.362 102.299 191.267C104.075 187.553 104.072 187.599 102.6 187.699C101.953 187.743 99.9133 187.29 98.0661 186.693C93.2681 185.142 89.866 184.896 85.6396 185.797ZM127.948 185.767C123.256 186.747 119.911 188.843 117.577 192.262C112.292 200.007 114.794 210.584 122.905 214.789C125.763 216.271 127.13 216.521 132.309 216.511C137.202 216.501 138.886 216.218 141.055 215.038C146.599 212.025 149.462 207.239 149.437 201.027C149.394 190.472 139.398 183.373 127.948 185.767ZM222.667 185.292C215.72 186.234 212.056 188.897 211.473 193.426C210.67 199.665 213.944 202 225.127 203.165C232.68 203.952 235.197 204.812 235.823 206.817C236.429 208.756 234.882 211.23 232.546 212.056C227.319 213.907 215.669 212.154 213.64 209.213C212.45 207.488 212.47 207.472 211.022 211.25C209.669 214.777 209.664 214.868 210.836 214.411C211.348 214.212 213.939 214.718 216.593 215.538C225.862 218.396 237.229 216.448 239.391 211.63C239.798 210.721 240.132 208.639 240.132 207.002C240.132 201.724 236.954 200.118 223.428 198.557C216.937 197.809 214.794 196.408 215.537 193.403C216.252 190.51 218.888 189.277 224.352 189.277C229.493 189.277 234.758 191.036 234.758 192.753C234.758 194.588 235.98 193.61 237.036 190.931C238.359 187.573 238.391 186.788 237.187 187.256C236.677 187.455 234.636 187.166 232.653 186.614C228.399 185.428 224.99 184.977 222.667 185.292ZM470.19 185.55C465.887 186.361 464.014 187.314 460.783 190.338C453.111 197.519 454.802 209.949 464.145 215.054C466.41 216.292 467.939 216.522 473.884 216.517C479.865 216.512 481.397 216.277 483.96 214.968C488.796 212.499 490.496 210.957 489.502 209.943C488.432 208.853 488.409 204.433 489.468 203.358C490.095 202.722 488.835 202.54 483.798 202.54C480.205 202.54 477.138 202.236 476.907 201.858C475.923 200.241 475.228 201.428 475.228 204.722C475.228 207.481 475.407 208.087 476.034 207.451C476.477 207.001 478.461 206.632 480.442 206.632H484.045L483.834 208.831C483.652 210.74 483.27 211.138 480.937 211.848C476.266 213.27 469.797 212.984 466.433 211.206C458.575 207.053 458.75 195.045 466.732 190.775C470.587 188.712 477.234 188.794 481.637 190.959C483.383 191.817 484.957 193.085 485.136 193.778C485.314 194.47 485.694 195.037 485.98 195.037C486.478 195.037 488.929 189.516 488.522 189.311C488.414 189.256 487.268 188.806 485.975 188.31C478.682 185.512 474.384 184.761 470.19 185.55ZM163.265 186.098C163.06 186.434 163.345 186.885 163.897 187.1C165.4 187.686 165.397 214.667 163.893 215.252C161.752 216.087 163.047 216.864 166.58 216.864C168.612 216.864 170.274 216.557 170.274 216.181C170.274 215.806 169.972 215.499 169.603 215.499C169.18 215.499 168.931 211.059 168.931 203.542V191.584L179.081 203.241C188.57 214.137 189.15 214.96 187.981 215.859C186.869 216.714 187.279 216.823 191.705 216.842C196.482 216.863 196.635 216.814 195.567 215.616C193.98 213.835 193.881 187.715 195.459 187.1C196.011 186.885 196.296 186.434 196.091 186.098C195.579 185.258 189.082 185.324 189.082 186.17C189.082 186.545 189.384 186.852 189.754 186.852C190.175 186.852 190.423 191.111 190.419 198.277L190.414 209.702L188.213 207.314C180.598 199.055 171.114 187.168 171.983 186.972C172.521 186.851 172.961 186.467 172.961 186.12C172.961 185.308 163.758 185.287 163.265 186.098ZM254.237 186.17C254.237 186.545 254.54 186.852 254.909 186.852C255.329 186.852 255.581 191.003 255.583 197.936C255.586 210.702 256.085 212.243 261.096 214.961C263.573 216.304 264.965 216.523 271.03 216.523C277.533 216.523 278.33 216.375 281.261 214.626C283.009 213.582 284.802 212.047 285.246 211.215C285.696 210.374 286.154 206.22 286.278 201.858C286.402 197.543 286.587 192.096 286.691 189.751L286.879 185.488H284.031C282.466 185.488 280.998 185.795 280.77 186.17C280.541 186.545 280.675 186.852 281.066 186.852C282.182 186.852 281.978 208.012 280.848 209.524C278.572 212.566 268.895 213.878 264.009 211.806C260.437 210.29 260.17 209.168 260.406 196.701L260.618 185.486L257.428 185.487C255.673 185.487 254.237 185.795 254.237 186.17ZM303.943 186.17C303.943 186.545 304.246 186.852 304.615 186.852C305.042 186.852 305.287 192.081 305.287 201.176C305.287 210.27 305.042 215.499 304.615 215.499C304.246 215.499 303.943 215.806 303.943 216.181C303.943 216.615 309.205 216.864 318.385 216.864C328.101 216.864 332.827 217.1 332.827 217.586C332.827 217.983 333.129 218.119 333.498 217.887C334.331 217.364 334.397 210.725 333.57 210.725C333.24 210.725 332.796 211.185 332.584 211.748C332.261 212.602 330.306 212.771 320.757 212.771H309.317V200.131C309.317 189.546 309.48 187.427 310.321 187.1C310.873 186.885 311.158 186.434 310.953 186.098C310.441 185.258 303.943 185.324 303.943 186.17ZM384.548 186.17C384.548 186.545 384.85 186.852 385.22 186.852C385.645 186.852 385.891 191.999 385.891 200.93C385.891 213.538 385.768 215.102 384.716 215.914C383.699 216.698 384.121 216.823 387.843 216.842C391.969 216.863 392.099 216.812 391.033 215.616C389.446 213.835 389.346 187.715 390.925 187.1C391.477 186.885 391.762 186.434 391.557 186.098C391.045 185.258 384.548 185.324 384.548 186.17ZM409.401 186.17C409.401 186.545 409.703 186.852 410.073 186.852C410.499 186.852 410.744 192.081 410.744 201.176C410.744 210.27 410.499 215.499 410.073 215.499C409.703 215.499 409.401 215.806 409.401 216.181C409.401 216.559 411.122 216.854 413.263 216.842C416.645 216.823 416.977 216.706 415.934 215.902C414.861 215.075 414.76 213.818 414.926 203.251L415.11 191.519L423.843 201.613C435.182 214.72 435.396 214.999 434.397 215.337C432.212 216.077 434.042 216.864 437.948 216.864C440.411 216.864 442.314 216.566 442.314 216.181C442.314 215.806 442.012 215.499 441.643 215.499C441.216 215.499 440.971 210.27 440.971 201.176C440.971 192.081 441.216 186.852 441.643 186.852C442.012 186.852 442.314 186.545 442.314 186.17C442.314 185.795 440.652 185.488 438.62 185.488C436.588 185.488 434.926 185.795 434.926 186.17C434.926 186.545 435.379 186.852 435.933 186.852C436.788 186.852 436.941 188.562 436.941 198.146C436.941 210.187 436.89 210.326 433.827 206.662C433.028 205.708 431.665 204.115 430.795 203.122C420.485 191.334 417.244 187.266 417.965 187.022C420.235 186.254 418.307 185.488 414.103 185.488C411.416 185.488 409.401 185.78 409.401 186.17ZM138.641 190.576C142.704 192.723 144.75 196.338 144.75 201.371C144.75 208.187 139.841 212.738 132.469 212.76C127.622 212.774 124.841 211.621 122.114 208.468C117.725 203.391 118.748 195.364 124.275 191.52C125.746 190.497 127.705 189.52 128.629 189.35C131.2 188.874 136.695 189.547 138.641 190.576Z" fill="#FF7B31"/>
<path fill-rule="evenodd" clip-rule="evenodd" d="M476.644 53.6484C470.951 59.8774 464.249 67.3228 461.751 70.1937L457.21 75.4144V124.996V174.578L473.19 174.392L489.171 174.207V108.481C489.171 48.4886 489.076 42.7364 488.083 42.5399C487.398 42.4042 483.148 46.5324 476.644 53.6484ZM372.065 77.1609C371.888 77.637 371.822 99.6666 371.918 126.116L372.092 174.207L388.073 174.392L404.053 174.578V141.092V107.605L389.184 91.9507C381.006 83.3407 373.881 76.296 373.35 76.296C372.82 76.296 372.241 76.6855 372.065 77.1609ZM430.816 100.004C423.515 108.086 416.775 115.777 415.837 117.093L414.131 119.487L414.307 146.847L414.483 174.207L430.463 174.392L446.444 174.578V129.935C446.444 87.8751 446.376 85.292 445.266 85.3003C444.605 85.3052 438.27 91.7514 430.816 100.004ZM344.365 103.785L329.422 120.235L329.393 147.394L329.365 174.553H345.519H361.673L361.5 131.143C361.348 93.1997 361.199 87.7069 360.317 87.534C359.727 87.4184 353.098 94.1711 344.365 103.785ZM22.5706 122.657C13.1996 125.258 5.83849 130.971 1.87397 138.72C0.15614 142.076 0.00205094 143.005 3.23438e-05 149.989C-0.00265912 156.957 0.15883 157.939 1.91366 161.614C7.82546 173.994 21.9146 180.229 40.3727 178.634C45.9272 178.154 53.8858 176.371 58.4613 174.582C59.476 174.186 61.1952 173.861 62.2812 173.861C63.3672 173.861 64.256 173.708 64.256 173.521C64.256 172.704 53.9672 157.254 53.4229 157.254C53.0898 157.254 52.8173 157.87 52.8173 158.622C52.8173 160.579 50.4778 161.898 44.033 163.574C34.1392 166.147 24.9109 164.705 19.9626 159.814C11.4663 151.416 16.35 138.673 29.1318 135.888C38.6158 133.823 52.7318 136.897 52.382 140.952C52.1942 143.125 53.6967 141.606 56.1379 137.153C63.5441 123.646 63.1626 124.504 61.576 124.93C60.778 125.144 57.1936 124.528 53.6113 123.559C44.3896 121.066 29.8295 120.643 22.5706 122.657ZM80.4048 131.571C80.4048 131.907 81.0104 132.345 81.7505 132.545C83.0606 132.897 83.0963 133.488 83.0963 154.832C83.0963 176.176 83.0606 176.768 81.7505 177.12C77.3392 178.307 82.8998 178.705 103.883 178.705C124.132 178.705 127.415 178.847 127.749 179.743C127.962 180.313 128.448 180.781 128.83 180.781C129.266 180.781 129.524 177.828 129.524 172.823C129.524 165.421 128.877 162.894 127.842 166.25C127.431 167.58 126.824 167.633 112.321 167.633H97.2264V150.27C97.2264 133.488 97.2715 132.894 98.5722 132.545C102.204 131.568 98.9786 130.96 90.1613 130.96C84.7952 130.96 80.4048 131.235 80.4048 131.571ZM145 131.571C145 131.907 145.572 132.336 146.272 132.525C147.459 132.844 147.561 133.88 147.82 148.347C148.077 162.701 148.211 164.093 149.662 167.465C152.484 174.028 158.089 177.606 167.123 178.61C179.025 179.933 188.831 177.162 193.228 171.234C196.505 166.815 196.962 164.037 197.06 147.913C197.146 133.548 197.165 133.374 198.661 132.699C199.494 132.323 200.175 131.778 200.175 131.488C200.175 131.197 195.936 130.96 190.755 130.96C182.203 130.96 179.534 131.485 182.38 132.608C183.291 132.968 183.4 134.993 183.221 148.309L183.017 163.598L180.872 165.567C176.712 169.387 167.925 169.205 164.049 165.219L161.822 162.928V147.961C161.822 135.294 161.977 132.931 162.831 132.594C165.64 131.486 162.934 130.96 154.42 130.96C149.239 130.96 145 131.235 145 131.571ZM220.361 131.443C220.361 131.758 221.042 132.323 221.875 132.699L223.389 133.382V154.832V176.283L221.875 176.966C221.042 177.342 220.361 177.887 220.361 178.177C220.361 178.467 228.784 178.705 239.079 178.705C259.524 178.705 262.802 178.242 266.781 174.799C269.784 172.2 271.042 169.247 271.047 164.788C271.051 159.958 269.178 156.546 265.491 154.67L262.881 153.342L265.241 151.406C268.416 148.801 269.728 145.391 269.278 140.91C268.825 136.402 267.795 134.678 264.434 132.806C261.867 131.375 260.783 131.296 241.051 131.088C229.671 130.968 220.361 131.128 220.361 131.443ZM302.06 149.318L287.311 165.599V169.903V174.207L303.292 174.392L319.272 174.578V153.807C319.272 134.137 319.207 133.036 318.04 133.036C317.299 133.036 310.933 139.522 302.06 149.318ZM254.97 140.753C257.381 141.883 258.012 145.658 256.206 148.148C254.899 149.951 254.695 149.993 246.363 150.182L237.855 150.376V145.166V139.955H245.562C249.947 139.955 254.001 140.299 254.97 140.753ZM254.995 158.932C256.797 159.706 257.382 160.432 257.726 162.319C258.721 167.771 255.369 169.709 244.942 169.709H237.855V163.828V157.946H245.278C250.179 157.946 253.481 158.281 254.995 158.932Z" fill="white"/>
</svg>
