<svg width="404" height="176" viewBox="0 0 404 176" fill="none" xmlns="http://www.w3.org/2000/svg">
<path fill-rule="evenodd" clip-rule="evenodd" d="M388.554 4.01408C378.724 7.0852 375.772 8.21628 375.63 8.9652C375.515 9.5715 376.378 10.7692 377.931 12.1575C379.298 13.3794 380.413 14.6674 380.409 15.0204C380.399 16.0287 334.939 65.2035 333.848 65.3869C333.177 65.4998 327.817 60.2876 316.692 48.7014C303.771 35.2462 300.266 31.8854 299.292 32.017C297.563 32.2511 225.863 109.957 225.863 111.608C225.863 112.94 234.168 120.015 234.168 120.015C234.61 120.015 249.323 104.403 266.862 85.3224C284.574 66.0537 299.157 50.6299 299.663 50.6299C300.163 50.6299 307.831 58.1879 316.701 67.4255C327.99 79.1807 333.18 84.2211 333.997 84.2211C334.745 84.2211 336.195 83.0327 338.025 80.9209C345.692 72.077 389.319 25.0003 389.997 24.8401C390.423 24.7393 393.212 26.9409 393.212 26.9409C393.212 26.9409 396.067 29.1431 396.575 29.0439C397.309 28.9002 398.142 26.0494 400.636 15.1388C402.361 7.59017 403.651 1.08834 403.5 0.690754C403.35 0.293166 402.792 -0.0174137 402.261 0.000758559C401.73 0.0189309 395.562 1.82515 388.554 4.01408ZM384.149 43.6198C379.561 48.5769 374.159 54.5022 372.146 56.787L368.486 60.9418V100.4V139.859L381.366 139.712L394.245 139.564V87.2575C394.245 39.5134 394.169 34.9356 393.368 34.7792C392.817 34.6713 389.391 37.9566 384.149 43.6198ZM299.864 62.3317C299.722 62.7106 299.669 80.2424 299.746 101.292L299.886 139.564L312.765 139.712L325.645 139.859V113.21V86.5598L313.661 74.1018C307.07 67.2498 301.327 61.6434 300.9 61.6434C300.473 61.6434 300.006 61.9534 299.864 62.3317ZM347.214 80.5112C341.33 86.9431 335.898 93.0633 335.142 94.1112L333.767 96.016L333.909 117.79L334.05 139.564L346.93 139.712L359.809 139.859V104.331C359.809 70.8584 359.755 68.8027 358.86 68.8093C358.327 68.8132 353.222 73.9433 347.214 80.5112ZM277.539 83.5201L265.496 96.6113L265.473 118.225L265.45 139.839H278.47H291.489L291.349 105.292C291.227 75.0958 291.107 70.7246 290.396 70.5869C289.92 70.4949 284.578 75.869 277.539 83.5201ZM18.1907 98.5392C10.6382 100.609 4.70551 105.156 1.51031 111.322C0.12584 113.993 0.00165295 114.732 2.60674e-05 120.29C-0.00214311 125.836 0.128008 126.618 1.54231 129.542C6.3069 139.394 17.662 144.356 32.5382 143.087C37.0148 142.705 43.429 141.286 47.1166 139.862C47.9344 139.547 49.32 139.289 50.1952 139.289C51.0705 139.289 51.7869 139.167 51.7869 139.018C51.7869 138.368 43.4946 126.072 43.0559 126.072C42.7875 126.072 42.5679 126.563 42.5679 127.161C42.5679 128.718 40.6823 129.768 35.4882 131.102C27.5144 133.15 20.0768 132.002 16.0888 128.109C9.24124 121.426 13.1772 111.285 23.4786 109.069C31.1222 107.425 42.499 109.872 42.217 113.098C42.0657 114.828 43.2766 113.619 45.2441 110.075C51.2131 99.3261 50.9056 100.008 49.6269 100.348C48.9837 100.518 46.0949 100.028 43.2078 99.2567C35.7756 97.2726 24.041 96.9362 18.1907 98.5392ZM64.8019 105.633C64.8019 105.901 65.29 106.249 65.8865 106.408C66.9423 106.688 66.9711 107.159 66.9711 124.145C66.9711 141.131 66.9423 141.602 65.8865 141.882C62.3312 142.827 66.8127 143.143 83.7241 143.143C100.044 143.143 102.689 143.257 102.959 143.969C103.13 144.424 103.522 144.795 103.83 144.795C104.182 144.795 104.389 142.446 104.389 138.463C104.389 132.571 103.868 130.561 103.034 133.231C102.703 134.29 102.213 134.333 90.5245 134.333H78.3592V120.514C78.3592 107.159 78.3956 106.686 79.4438 106.408C82.3711 105.63 79.7713 105.147 72.6651 105.147C68.3403 105.147 64.8019 105.366 64.8019 105.633ZM116.862 105.633C116.862 105.901 117.323 106.242 117.887 106.392C118.844 106.646 118.926 107.471 119.135 118.984C119.342 130.407 119.45 131.515 120.619 134.199C122.893 139.422 127.411 142.269 134.692 143.068C144.284 144.121 152.188 141.915 155.731 137.198C158.372 133.681 158.741 131.47 158.819 118.638C158.889 107.206 158.904 107.068 160.11 106.531C160.781 106.232 161.33 105.798 161.33 105.567C161.33 105.336 157.914 105.147 153.738 105.147C146.845 105.147 144.695 105.565 146.989 106.458C147.723 106.745 147.81 108.357 147.666 118.954L147.502 131.121L145.773 132.688C142.42 135.728 135.338 135.583 132.214 132.411L130.419 130.588V118.676C130.419 108.596 130.545 106.716 131.233 106.447C133.497 105.565 131.316 105.147 124.454 105.147C120.278 105.147 116.862 105.366 116.862 105.633ZM177.599 105.531C177.599 105.782 178.148 106.232 178.819 106.531L180.039 107.074V124.145V141.216L178.819 141.76C178.148 142.059 177.599 142.492 177.599 142.723C177.599 142.954 184.387 143.143 192.684 143.143C209.162 143.143 211.804 142.775 215.011 140.035C217.431 137.967 218.445 135.617 218.449 132.068C218.453 128.224 216.943 125.509 213.972 124.016L211.868 122.959L213.77 121.418C216.329 119.345 217.386 116.631 217.024 113.065C216.659 109.478 215.828 108.106 213.119 106.615C211.05 105.477 210.177 105.414 194.274 105.249C185.103 105.153 177.599 105.28 177.599 105.531ZM243.444 119.756L231.557 132.714V136.139V139.564L244.437 139.712L257.316 139.859V123.329C257.316 107.675 257.263 106.799 256.323 106.799C255.726 106.799 250.595 111.96 243.444 119.756ZM205.492 112.94C207.435 113.839 207.943 116.844 206.488 118.826C205.435 120.26 205.27 120.294 198.555 120.445L191.698 120.599V116.452V112.306H197.909C201.444 112.306 204.711 112.579 205.492 112.94ZM205.512 127.407C206.965 128.023 207.436 128.601 207.714 130.103C208.515 134.442 205.813 135.985 197.41 135.985H191.698V131.304V126.623H197.681C201.631 126.623 204.292 126.89 205.512 127.407ZM274.687 151.706C274.701 154.549 274.799 154.855 275.424 154.019C276.013 153.232 277.004 153.056 280.83 153.056H285.515V163.518C285.515 170.126 285.316 173.981 284.973 173.981C284.675 173.981 284.431 174.229 284.431 174.532C284.431 174.835 285.773 175.083 287.413 175.083C289.054 175.083 290.396 174.835 290.396 174.532C290.396 174.229 290.152 173.981 289.854 173.981C289.511 173.981 289.311 170.126 289.311 163.518V153.056H294.192C297.084 153.056 299.073 153.28 299.073 153.606C299.073 153.909 299.317 154.157 299.615 154.157C299.913 154.157 300.157 152.918 300.157 151.403C300.157 149.889 299.913 148.65 299.615 148.65C299.317 148.65 299.073 148.898 299.073 149.201C299.073 150.043 276.154 149.937 275.32 149.091C274.814 148.577 274.673 149.158 274.687 151.706ZM69.1402 150.001C65.258 150.828 63.0991 152.028 61.1311 154.451C55.8383 160.973 58.2217 170.581 65.9727 173.966C69.9699 175.713 76.2676 175.384 80.4476 173.212C82.0436 172.382 83.691 171.836 84.1081 171.999C85.3532 172.484 84.9752 171.25 83.1699 168.935C81.479 166.768 81.4704 166.764 80.863 168.03C79.8771 170.085 75.9254 171.78 72.1435 171.77C66.4646 171.754 62.7005 168.669 62.2244 163.642C61.8659 159.853 63.4478 156.37 66.4407 154.359C68.3648 153.066 69.2753 152.831 72.3181 152.843C76.2296 152.858 80.5284 154.562 80.5284 156.095C80.5284 157.621 81.3939 156.916 82.5896 154.417C84.024 151.419 84.0213 151.456 82.8331 151.537C82.3109 151.572 80.664 151.206 79.1727 150.725C75.2991 149.472 72.5523 149.274 69.1402 150.001ZM103.298 149.977C99.5097 150.769 96.8086 152.46 94.9246 155.221C90.6579 161.473 92.6774 170.012 99.2261 173.407C101.534 174.604 102.637 174.806 106.818 174.798C110.769 174.79 112.128 174.562 113.879 173.609C118.355 171.176 120.667 167.312 120.646 162.297C120.611 153.775 112.542 148.044 103.298 149.977ZM179.768 149.593C174.16 150.354 171.201 152.504 170.731 156.16C170.082 161.197 172.725 163.083 181.754 164.023C187.851 164.659 189.883 165.353 190.389 166.972C190.879 168.537 189.629 170.534 187.744 171.201C183.523 172.695 174.118 171.281 172.48 168.906C171.519 167.513 171.535 167.5 170.366 170.55C169.274 173.398 169.27 173.472 170.216 173.103C170.63 172.942 172.721 173.351 174.864 174.012C182.347 176.32 191.524 174.747 193.27 170.857C193.599 170.124 193.868 168.442 193.868 167.121C193.868 162.86 191.302 161.563 180.382 160.303C175.142 159.699 173.412 158.568 174.012 156.141C174.589 153.807 176.717 152.811 181.128 152.811C185.279 152.811 189.529 154.231 189.529 155.617C189.529 157.099 190.516 156.309 191.368 154.146C192.437 151.435 192.463 150.801 191.491 151.179C191.079 151.34 189.431 151.107 187.83 150.661C184.395 149.703 181.643 149.339 179.768 149.593ZM379.603 149.802C376.129 150.456 374.617 151.226 372.008 153.667C365.815 159.465 367.18 169.5 374.722 173.622C376.551 174.621 377.785 174.807 382.586 174.803C387.414 174.799 388.651 174.609 390.72 173.552C394.624 171.559 395.997 170.314 395.194 169.495C394.33 168.615 394.312 165.047 395.167 164.179C395.673 163.665 394.656 163.518 390.589 163.518C387.689 163.518 385.212 163.273 385.026 162.968C384.232 161.663 383.67 162.621 383.67 165.281C383.67 167.507 383.815 167.997 384.321 167.483C384.679 167.12 386.281 166.822 387.88 166.822H390.789L390.619 168.598C390.471 170.139 390.163 170.46 388.28 171.033C384.509 172.182 379.286 171.95 376.57 170.515C370.226 167.162 370.367 157.468 376.811 154.02C379.924 152.355 385.29 152.421 388.845 154.168C390.254 154.861 391.525 155.885 391.67 156.444C391.813 157.003 392.12 157.461 392.351 157.461C392.753 157.461 394.731 153.004 394.403 152.838C394.316 152.794 393.391 152.43 392.347 152.03C386.459 149.771 382.989 149.165 379.603 149.802ZM131.81 150.244C131.645 150.516 131.875 150.879 132.321 151.053C133.534 151.526 133.532 173.309 132.317 173.782C130.589 174.456 131.634 175.083 134.487 175.083C136.127 175.083 137.469 174.835 137.469 174.532C137.469 174.229 137.225 173.981 136.927 173.981C136.586 173.981 136.385 170.396 136.385 164.327V154.673L144.579 164.084C152.24 172.881 152.708 173.546 151.765 174.271C150.867 174.962 151.198 175.049 154.771 175.065C158.627 175.082 158.751 175.042 157.889 174.075C156.608 172.638 156.528 151.55 157.802 151.053C158.248 150.879 158.478 150.516 158.312 150.244C157.899 149.566 152.653 149.619 152.653 150.302C152.653 150.605 152.897 150.853 153.196 150.853C153.536 150.853 153.736 154.291 153.733 160.077L153.729 169.3L151.952 167.373C145.804 160.705 138.147 151.108 138.849 150.95C139.283 150.852 139.638 150.542 139.638 150.262C139.638 149.606 132.208 149.59 131.81 150.244ZM205.256 150.302C205.256 150.605 205.5 150.853 205.798 150.853C206.137 150.853 206.341 154.204 206.343 159.801C206.345 170.108 206.748 171.352 210.793 173.546C212.793 174.63 213.917 174.807 218.813 174.807C224.064 174.807 224.707 174.688 227.073 173.276C228.484 172.433 229.932 171.194 230.291 170.522C230.654 169.843 231.023 166.489 231.124 162.968C231.224 159.485 231.373 155.086 231.457 153.193L231.609 149.751H229.31C228.046 149.751 226.861 149.999 226.676 150.302C226.492 150.605 226.6 150.853 226.916 150.853C227.816 150.853 227.652 167.936 226.739 169.157C224.903 171.613 217.089 172.672 213.145 170.999C210.261 169.776 210.045 168.869 210.236 158.805L210.408 149.75L207.832 149.751C206.415 149.751 205.256 149.999 205.256 150.302ZM245.386 150.302C245.386 150.605 245.63 150.853 245.928 150.853C246.272 150.853 246.47 155.075 246.47 162.417C246.47 169.759 246.272 173.981 245.928 173.981C245.63 173.981 245.386 174.229 245.386 174.532C245.386 174.882 249.633 175.083 257.045 175.083C264.889 175.083 268.704 175.273 268.704 175.666C268.704 175.986 268.948 176.096 269.246 175.909C269.918 175.487 269.972 170.126 269.304 170.126C269.038 170.126 268.68 170.498 268.508 170.952C268.248 171.642 266.669 171.778 258.96 171.778H249.724V161.574C249.724 153.028 249.856 151.318 250.534 151.053C250.98 150.879 251.21 150.516 251.044 150.244C250.631 149.566 245.386 149.619 245.386 150.302ZM310.461 150.302C310.461 150.605 310.705 150.853 311.003 150.853C311.347 150.853 311.545 155.009 311.545 162.219C311.545 172.397 311.446 173.661 310.596 174.316C309.775 174.949 310.116 175.05 313.121 175.065C316.452 175.082 316.557 175.041 315.697 174.075C314.415 172.638 314.335 151.55 315.609 151.053C316.055 150.879 316.285 150.516 316.12 150.244C315.706 149.566 310.461 149.619 310.461 150.302ZM330.526 150.302C330.526 150.605 330.77 150.853 331.068 150.853C331.412 150.853 331.61 155.075 331.61 162.417C331.61 169.759 331.412 173.981 331.068 173.981C330.77 173.981 330.526 174.229 330.526 174.532C330.526 174.837 331.915 175.075 333.644 175.065C336.374 175.049 336.642 174.955 335.8 174.306C334.933 173.639 334.852 172.624 334.986 164.093L335.135 154.621L342.185 162.77C351.339 173.352 351.512 173.578 350.706 173.85C348.942 174.448 350.42 175.083 353.573 175.083C355.562 175.083 357.098 174.842 357.098 174.532C357.098 174.229 356.854 173.981 356.556 173.981C356.211 173.981 356.013 169.759 356.013 162.417C356.013 155.075 356.211 150.853 356.556 150.853C356.854 150.853 357.098 150.605 357.098 150.302C357.098 149.999 355.756 149.751 354.115 149.751C352.475 149.751 351.133 149.999 351.133 150.302C351.133 150.605 351.499 150.853 351.946 150.853C352.636 150.853 352.76 152.233 352.76 159.971C352.76 169.693 352.719 169.804 350.245 166.847C349.601 166.076 348.5 164.79 347.798 163.988C339.474 154.471 336.857 151.188 337.44 150.99C339.273 150.37 337.716 149.751 334.322 149.751C332.152 149.751 330.526 149.988 330.526 150.302ZM111.93 153.859C115.211 155.593 116.862 158.512 116.862 162.574C116.862 168.077 112.899 171.752 106.948 171.77C103.035 171.781 100.789 170.85 98.5878 168.304C95.044 164.206 95.8699 157.725 100.332 154.622C101.519 153.796 103.101 153.007 103.847 152.869C105.923 152.486 110.359 153.029 111.93 153.859Z" fill="white"/>
<path fill-rule="evenodd" clip-rule="evenodd" d="M384.813 43.3125C380.217 48.3413 374.807 54.3523 372.79 56.6701L369.123 60.885V100.914V140.944L382.025 140.794L394.927 140.644V87.5813C394.927 39.1467 394.85 34.5027 394.048 34.3441C393.496 34.2346 390.064 37.5674 384.813 43.3125ZM300.383 62.295C300.24 62.6794 300.187 80.4648 300.264 101.819L300.405 140.644L313.306 140.794L326.208 140.944V113.909V86.8735L314.203 74.2354C307.601 67.2842 301.848 61.5967 301.42 61.5967C300.992 61.5967 300.525 61.9112 300.383 62.295ZM347.815 80.7374C341.92 87.2623 336.479 93.471 335.722 94.5341L334.344 96.4664L334.486 118.556L334.628 140.644L347.53 140.794L360.432 140.944V104.901C360.432 70.945 360.377 68.8596 359.481 68.8663C358.947 68.8702 353.832 74.0745 347.815 80.7374ZM278.019 83.7898L265.955 97.0703L265.932 118.997L265.909 140.923H278.951H291.993L291.853 105.877C291.73 75.2437 291.61 70.8092 290.898 70.6696C290.422 70.5763 285.07 76.028 278.019 83.7898ZM18.2222 99.0261C10.6566 101.126 4.71364 105.738 1.51293 111.994C0.126058 114.703 0.00165581 115.453 2.61124e-05 121.092C-0.00214681 126.718 0.12823 127.511 1.54498 130.477C6.3178 140.472 17.6925 145.506 32.5944 144.218C37.0788 143.831 43.5041 142.392 47.1981 140.947C48.0173 140.627 49.4053 140.365 50.282 140.365C51.1588 140.365 51.8764 140.241 51.8764 140.091C51.8764 139.431 43.5699 126.958 43.1304 126.958C42.8615 126.958 42.6415 127.455 42.6415 128.062C42.6415 129.642 40.7527 130.707 35.5496 132.06C27.5619 134.137 20.1115 132.973 16.1166 129.024C9.25723 122.244 13.2 111.956 23.5192 109.708C31.1761 108.04 42.5725 110.522 42.29 113.796C42.1385 115.551 43.3515 114.324 45.3223 110.729C51.3017 99.8244 50.9937 100.517 49.7127 100.861C49.0685 101.034 46.1747 100.536 43.2825 99.754C35.8375 97.7412 24.0825 97.3999 18.2222 99.0261ZM64.914 106.222C64.914 106.494 65.4029 106.848 66.0004 107.008C67.0581 107.293 67.0869 107.77 67.0869 125.002C67.0869 142.234 67.0581 142.712 66.0004 142.996C62.439 143.954 66.9283 144.275 83.8689 144.275C100.217 144.275 102.867 144.39 103.137 145.113C103.308 145.574 103.701 145.951 104.01 145.951C104.362 145.951 104.57 143.568 104.57 139.527C104.57 133.551 104.048 131.511 103.212 134.22C102.88 135.294 102.39 135.337 90.681 135.337H78.4947V121.319C78.4947 107.77 78.5311 107.291 79.5812 107.008C82.5136 106.22 79.9093 105.729 72.7908 105.729C68.4585 105.729 64.914 105.952 64.914 106.222ZM117.064 106.222C117.064 106.494 117.526 106.84 118.091 106.992C119.05 107.25 119.132 108.087 119.341 119.766C119.548 131.355 119.656 132.479 120.828 135.201C123.106 140.5 127.632 143.388 134.925 144.199C144.534 145.267 152.451 143.03 156 138.244C158.646 134.676 159.015 132.433 159.094 119.416C159.164 107.819 159.179 107.678 160.387 107.133C161.059 106.83 161.609 106.39 161.609 106.155C161.609 105.921 158.187 105.729 154.004 105.729C147.099 105.729 144.945 106.153 147.243 107.06C147.978 107.35 148.066 108.986 147.922 119.736L147.757 132.079L146.025 133.668C142.667 136.753 135.573 136.606 132.443 133.387L130.645 131.538V119.454C130.645 109.228 130.77 107.321 131.46 107.049C133.728 106.154 131.543 105.729 124.669 105.729C120.486 105.729 117.064 105.952 117.064 106.222ZM177.906 106.119C177.906 106.373 178.456 106.83 179.128 107.133L180.351 107.684V125.002V142.32L179.128 142.871C178.456 143.175 177.906 143.615 177.906 143.849C177.906 144.084 184.706 144.275 193.018 144.275C209.524 144.275 212.17 143.902 215.382 141.122C217.807 139.024 218.823 136.64 218.827 133.04C218.83 129.14 217.318 126.385 214.342 124.872L212.234 123.799L214.14 122.236C216.703 120.133 217.762 117.38 217.399 113.762C217.033 110.123 216.202 108.731 213.488 107.219C211.415 106.064 210.54 106 194.61 105.833C185.423 105.736 177.906 105.864 177.906 106.119ZM243.865 120.55L231.958 133.695V137.169V140.644L244.859 140.794L257.761 140.944V124.174C257.761 108.294 257.708 107.405 256.766 107.405C256.168 107.405 251.029 112.641 243.865 120.55ZM205.848 113.636C207.794 114.547 208.303 117.595 206.845 119.606C205.79 121.061 205.625 121.095 198.899 121.248L192.03 121.405V117.198V112.992H198.252C201.792 112.992 205.065 113.269 205.848 113.636ZM205.868 128.312C207.323 128.937 207.795 129.523 208.073 131.046C208.876 135.448 206.169 137.013 197.751 137.013H192.03V132.265V127.516H198.023C201.979 127.516 204.645 127.787 205.868 128.312Z" fill="white"/>
</svg>
