<svg width="56" height="56" viewBox="0 0 56 56" fill="none" xmlns="http://www.w3.org/2000/svg">
<path d="M46.1121 35.3663V32.6781V32.6784C46.1193 32.149 45.9455 31.6335 45.6196 31.2163C45.2936 30.7994 44.8355 30.5059 44.3202 30.3847C43.9199 30.2962 43.503 30.3197 43.1153 30.4518C42.3849 27.7584 40.8462 25.3534 38.7069 23.5615C38.4647 22.265 38.7484 20.9256 39.4953 19.8387C39.6937 19.5087 39.684 19.094 39.4703 18.7738C39.2565 18.4538 38.8772 18.2856 38.4962 18.3425C35.9649 18.6697 34.5134 19.8435 33.6981 20.9141V20.9138C32.7468 20.6454 31.7687 20.4819 30.7818 20.4257C30.7653 20.4241 30.7487 20.4241 30.7324 20.4257C31.924 23.6632 31.6765 27.2554 30.0524 30.2985C28.428 33.3419 25.5815 35.5472 22.2287 36.3594C18.8759 37.1716 15.3359 36.5135 12.4991 34.5507C12.4822 34.5935 12.4744 34.6392 12.4769 34.6851C12.5606 36.4957 13.0053 38.271 13.7847 39.9076C14.5641 41.5438 15.6623 43.0079 17.015 44.2141C17.9503 45.0323 18.4916 46.2107 18.5026 47.4532V49.0569C18.5026 49.2948 18.5969 49.5226 18.7648 49.6907C18.9329 49.8585 19.1607 49.9529 19.3985 49.9529H24.8372C25.0747 49.9529 25.3025 49.8585 25.4707 49.6907C25.6388 49.5226 25.7332 49.2948 25.7332 49.0569V47.6773H30.0472L30.0476 49.0569C30.0476 49.2948 30.1419 49.5226 30.3097 49.6907C30.4779 49.8585 30.7057 49.9529 30.9435 49.9529H36.3822C36.6197 49.9529 36.8475 49.8585 37.0157 49.6907C37.1838 49.5226 37.2781 49.2948 37.2781 49.0569V47.8294C37.2647 46.5304 37.8213 45.291 38.8013 44.4381C40.9134 42.6478 42.4306 40.2569 43.1513 37.5837C43.5397 37.7144 43.9566 37.7362 44.3566 37.6462C44.8634 37.52 45.3128 37.2259 45.6318 36.8122C45.9506 36.3981 46.12 35.8884 46.1125 35.3659L46.1121 35.3663ZM37.6633 30.6266C37.3067 30.6266 36.9648 30.485 36.7129 30.2328C36.4608 29.981 36.3192 29.6391 36.3192 29.2825C36.3192 28.9259 36.4608 28.5844 36.7129 28.3322C36.9648 28.08 37.3067 27.9384 37.6633 27.9384C38.0195 27.9384 38.3614 28.08 38.6136 28.3322C38.8655 28.5844 39.0073 28.9259 39.0073 29.2825C39.0073 29.6391 38.8655 29.981 38.6136 30.2328C38.3614 30.485 38.0195 30.6266 37.6633 30.6266ZM20.5633 12.4778C20.5842 10.9168 21.1648 9.41499 22.1995 8.24595C23.2339 7.07691 24.6536 6.31779 26.2005 6.10691C27.7474 5.89597 29.3186 6.24722 30.6283 7.09659C31.938 7.94595 32.8993 9.23755 33.3377 10.7359C33.7758 12.2343 33.6617 13.84 33.0158 15.2615C32.3702 16.6828 31.2358 17.8253 29.8189 18.4809C27.8736 15.1127 24.432 12.8806 20.5629 12.4778H20.5633ZM9.88727 24.5106C9.88727 27.0131 10.881 29.4127 12.6504 31.1822C14.4197 32.9515 16.8197 33.9456 19.322 33.9456C21.8242 33.9456 24.2241 32.9515 25.9936 31.1822C27.7629 29.4128 28.757 27.0131 28.757 24.5106C28.757 22.0084 27.7629 19.6087 25.9936 17.8393C24.2242 16.0699 21.8242 15.0759 19.322 15.0759C16.8204 15.0781 14.422 16.0731 12.6533 17.8418C10.8842 19.6105 9.88951 22.009 9.88735 24.5105L9.88727 24.5106ZM20.0481 18.9912V19.5915C20.5212 19.6081 20.9915 19.6756 21.4502 19.7931C21.8612 19.9262 22.1187 20.3334 22.0627 20.7618C22.0068 21.1903 21.653 21.5174 21.2218 21.5403C21.1383 21.5406 21.0552 21.5284 20.9752 21.5046C20.539 21.3759 20.0862 21.3109 19.6311 21.3118C18.6321 21.3118 18.3095 21.7599 18.3095 22.1721C18.3095 22.6784 18.847 23.0009 20.1551 23.4937C21.983 24.1387 22.7223 24.9856 22.7223 26.3653C22.7223 27.7453 21.7279 28.8966 19.9673 29.2103V30.0256C19.9673 30.4412 19.6301 30.7781 19.2145 30.7781C18.7988 30.7781 18.462 30.4412 18.462 30.0256V29.3178C17.8379 29.2899 17.2204 29.1799 16.6251 28.9906C16.1792 28.845 15.9213 28.38 16.0338 27.9243V27.8528C16.1342 27.4681 16.4829 27.2006 16.8804 27.2031C16.981 27.2028 17.081 27.2197 17.176 27.2525C17.717 27.4453 18.2863 27.5468 18.8607 27.5525C19.7567 27.5525 20.3348 27.2118 20.3348 26.5981C20.3348 25.9843 19.842 25.6437 18.7042 25.254C17.0601 24.703 15.9401 23.9324 15.9401 22.4405C15.9401 21.0965 16.8945 20.0258 18.5385 19.7033L18.5379 18.9912C18.5379 18.5755 18.8751 18.2387 19.2907 18.2387C19.7063 18.2387 20.0432 18.5755 20.0432 18.9912L20.0481 18.9912Z" fill="white"/>
</svg>
