<svg width="55" height="55" viewBox="0 0 55 55" fill="none" xmlns="http://www.w3.org/2000/svg">
<path d="M32.3223 15.1178C33.2692 13.5792 34.3317 11.8359 34.2142 9.87286C34.1175 8.24494 32.9911 6.59038 31.3629 6.39702C29.9198 6.23865 28.5822 7.24198 27.1387 7.40038C25.3795 7.60724 22.465 6.15148 21.1459 8.02526C20.1818 9.39201 21.2254 11.3605 22.6243 15.1181L32.3223 15.1178Z" fill="white"/>
<path d="M25.4159 31.1291C25.4159 32.0885 26.1393 32.3819 27.1092 32.6861V29.7092C26.224 29.7866 25.4159 30.2381 25.4159 31.129V31.1291Z" fill="white"/>
<path d="M28.2382 35.0954V38.1919C29.1666 38.0986 30.073 37.6462 30.073 36.7129C30.073 35.7108 29.2762 35.3989 28.2382 35.0954Z" fill="white"/>
<path d="M33.8003 18.4359C33.2358 18.7382 32.7967 18.6056 32.1371 18.6381C32.5505 19.7433 33.2438 20.4084 32.8675 21.4541C32.5652 22.2497 31.7099 22.784 30.7556 22.5453C30.7268 22.6333 31.0628 24.9565 28.9958 24.9565C28.0188 24.9565 27.2359 24.1732 27.2359 23.1966V18.6382C22.4384 18.548 22.1043 18.8494 21.34 18.3479C16.2712 21.4014 12.76 28.1072 12.76 35.8952C12.76 46.5605 19.36 48.6199 27.5 48.6199C35.6314 48.6199 42.24 46.5608 42.24 35.8952C42.2394 28.1777 38.7811 21.5253 33.7999 18.4359L33.8003 18.4359ZM28.238 40.0328V41.2712H27.1088V40.0154C25.4972 39.8551 24.0507 39.23 22.7687 38.1407L24.0565 36.6439C25.0448 37.4811 26.0622 37.9796 27.1089 38.1407V34.8027C24.9123 34.2914 23.2626 33.5876 23.2626 31.3361C23.2626 29.2069 24.9912 27.9759 27.1089 27.8694V27.0091H28.238V27.8863C29.5317 27.9787 30.7548 28.4084 31.9076 29.1772L30.7606 30.76C29.9847 30.2211 29.1434 29.8884 28.238 29.7616V32.996H28.2911C30.5219 33.5073 32.2249 34.2602 32.2249 36.5489C32.2249 38.7424 30.4141 39.929 28.238 40.033L28.238 40.0328Z" fill="white"/>
<path d="M33.4223 16.881C33.4223 16.6379 33.2256 16.4408 32.9822 16.4408L22.3106 16.4411C22.0676 16.4411 21.8705 16.6379 21.8705 16.8813C21.8705 17.1243 22.0672 17.3214 22.3106 17.3214H28.5519V23.1992C28.5519 23.4423 28.7486 23.6394 28.992 23.6394C29.2351 23.6394 29.4321 23.4426 29.4321 23.1992V18.0246L30.8129 21.029C30.9142 21.2497 31.1757 21.3464 31.3964 21.2448C31.6174 21.1435 31.7138 20.882 31.6122 20.6613L30.077 17.3217H32.982C33.2251 17.3211 33.4221 17.1244 33.4221 16.881L33.4223 16.881Z" fill="white"/>
</svg>
