<svg width="43" height="43" viewBox="0 0 43 43" fill="none" xmlns="http://www.w3.org/2000/svg">
<path d="M8.95833 37.625C7.97292 37.625 7.12904 37.2744 6.42671 36.5733C5.72557 35.871 5.375 35.0271 5.375 34.0417V8.95833C5.375 7.97292 5.72557 7.12904 6.42671 6.42671C7.12904 5.72557 7.97292 5.375 8.95833 5.375H34.0417C35.0271 5.375 35.871 5.72557 36.5733 6.42671C37.2744 7.12904 37.625 7.97292 37.625 8.95833V34.0417C37.625 35.0271 37.2744 35.871 36.5733 36.5733C35.871 37.2744 35.0271 37.625 34.0417 37.625H8.95833ZM10.75 22.5302L17.9167 15.3635L25.0833 22.5302L32.25 15.3635L34.0417 17.1552V8.95833H8.95833V20.7385L10.75 22.5302ZM8.95833 34.0417H34.0417V22.2167L32.25 20.425L25.0833 27.5917L17.9167 20.425L10.75 27.5917L8.95833 25.8V34.0417ZM8.95833 34.0417V22.2167V25.8V8.95833V34.0417Z" fill="white"/>
</svg>
