<svg width="124" height="143" viewBox="0 0 124 143" fill="none" xmlns="http://www.w3.org/2000/svg">
<g clip-path="url(#clip0_1_6031)">
<path d="M63.025 114.4C47.7598 114.4 34.2654 106.773 26.3886 95.3334C26.5718 83.4167 50.8128 76.8626 63.025 76.8626C75.2371 76.8626 99.4781 83.4167 99.6613 95.3334C95.6245 101.199 90.1716 106.006 83.7829 109.331C77.3941 112.655 70.2655 114.396 63.025 114.4ZM63.025 29.7917C67.8832 29.7917 72.5425 31.675 75.9779 35.0272C79.4132 38.3794 81.3431 42.926 81.3431 47.6667C81.3431 52.4075 79.4132 56.9541 75.9779 60.3063C72.5425 63.6585 67.8832 65.5417 63.025 65.5417C58.1667 65.5417 53.5074 63.6585 50.072 60.3063C46.6367 56.9541 44.7068 52.4075 44.7068 47.6667C44.7068 42.926 46.6367 38.3794 50.072 35.0272C53.5074 31.675 58.1667 29.7917 63.025 29.7917ZM63.025 11.9167C55.0064 11.9167 47.0663 13.4579 39.6581 16.4523C32.2499 19.4466 25.5186 23.8355 19.8486 29.3683C8.39751 40.5423 1.96436 55.6976 1.96436 71.5001C1.96436 87.3026 8.39751 102.458 19.8486 113.632C25.5186 119.165 32.2499 123.554 39.6581 126.548C47.0663 129.542 55.0064 131.083 63.025 131.083C79.2192 131.083 94.7502 124.806 106.201 113.632C117.652 102.458 124.086 87.3026 124.086 71.5001C124.086 38.5505 96.6083 11.9167 63.025 11.9167Z" fill="#FF7B31"/>
</g>
<defs>
<clipPath id="clip0_1_6031">
<rect width="124" height="143" fill="white"/>
</clipPath>
</defs>
</svg>
